<svg xmlns="http://www.w3.org/2000/svg">
    <defs>
        <symbol id="copy" viewBox="0 0 24 24">
            <path
                d="M16 2C16 1.44772 15.5523 1 15 1H5L4.82373 1.00509C3.24892 1.09634 2 2.40232 2 4V16L2.00673 16.1166C2.06449 16.614 2.48716 17 3 17C3.55228 17 4 16.5523 4 16V4L4.00673 3.88338C4.06449 3.38604 4.48716 3 5 3H15L15.1166 2.99327C15.614 2.93551 16 2.51284 16 2Z"
                fill="currentColor" />
            <path
                d="M20 5C21.1046 5 22 5.89543 22 7V21C22 22.1046 21.1046 23 20 23H8C6.89543 23 6 22.1046 6 21V7C6 5.89543 6.89543 5 8 5H20ZM20 8C20 7.44772 19.5523 7 19 7H9C8.44771 7 8 7.44772 8 8V20C8 20.5523 8.44771 21 9 21H19C19.5523 21 20 20.5523 20 20V8Z"
                fill="currentColor" />
        </symbol>

        <symbol id="search" viewBox="0 0 6.3499999 6.3500002">
            <g>
                <g id="layer1" transform="translate(0 -290.65)">
                    <path
                        d="m2.8944091 291.16099c-1.3119941 0-2.38073328 1.06874-2.38073328 2.38074 0 1.31199 1.06873918 2.3828 2.38073328 2.3828.5603925 0 1.0757805-.19638 1.4831137-.52245l.9916707.99115a.26516505.26516505 0 0 0 .375171-.37465l-.9916708-.99167c.3263411-.40796.5229654-.92414.5229654-1.48518 0-1.312-1.0692559-2.38074-2.38125-2.38074zm0 .52917c1.0260113 0 1.8515666.82556 1.8515666 1.85157s-.8255553 1.85363-1.8515666 1.85363-1.8515666-.82762-1.8515666-1.85363.8255553-1.85157 1.8515666-1.85157z"
                        font-variant-ligatures="normal" font-variant-position="normal"
                        font-variant-caps="normal" font-variant-numeric="normal"
                        font-variant-alternates="normal" font-feature-settings="normal"
                        text-indent="0" text-align="start" text-decoration-line="none"
                        text-decoration-style="solid" text-decoration-color="rgb(0,0,0)"
                        text-transform="none" text-orientation="mixed" white-space="normal"
                        shape-padding="0" isolation="auto" mix-blend-mode="normal"
                        solid-color="rgb(0,0,0)" solid-opacity="1" vector-effect="none"
                        paint-order="stroke fill markers" fill="currentColor"></path>
                </g>
            </g>
        </symbol>
    </defs>
</svg>